<svg width="20" height="20" viewBox="0 0 20 20" fill="none" xmlns="http://www.w3.org/2000/svg">
<g id="Group 65">
<path id="Vector" d="M10 19.5833C15.2927 19.5833 19.5833 15.2927 19.5833 9.99999C19.5833 4.70726 15.2927 0.416656 10 0.416656C4.70727 0.416656 0.416664 4.70726 0.416664 9.99999C0.416664 15.2927 4.70727 19.5833 10 19.5833Z" fill="#F7931A"/>
<path id="Vector_2" d="M14.6112 8.81405C14.7992 7.55864 13.8427 6.88361 12.5358 6.43319L12.9598 4.73215L11.9248 4.4746L11.5116 6.13072C11.2396 6.06244 10.9605 5.99895 10.682 5.93546L11.0983 4.26856L10.0633 4.01041L9.63922 5.71085C9.41402 5.65934 9.1924 5.60903 8.97797 5.55512L8.97917 5.54973L7.55126 5.19335L7.27573 6.29903C7.27573 6.29903 8.0442 6.47512 8.02803 6.4859C8.4473 6.59072 8.52277 6.86804 8.51019 7.08845L8.02743 9.02608C8.05618 9.03327 8.09331 9.04405 8.13524 9.06022L8.02563 9.03327L7.34881 11.7477C7.2973 11.8747 7.16732 12.0658 6.87383 11.9933C6.88461 12.0083 6.12154 11.8058 6.12154 11.8058L5.60764 12.9906L6.95529 13.3266C7.20566 13.3895 7.45123 13.4554 7.69261 13.5171L7.26435 15.2373L8.29875 15.4948L8.72282 13.7938C9.00553 13.8699 9.27985 13.9405 9.54818 14.0076L9.12532 15.7015L10.1603 15.959L10.5886 14.2424C12.3543 14.5766 13.6816 14.4419 14.2404 12.845C14.6908 11.5597 14.2183 10.8176 13.2893 10.3342C13.9661 10.1785 14.4752 9.73345 14.6112 8.81405V8.81405ZM12.2453 12.1311C11.926 13.417 9.76081 12.7217 9.05883 12.5474L9.62784 10.2683C10.3298 10.4438 12.5801 10.7906 12.2453 12.1311ZM12.5657 8.79548C12.274 9.96525 10.4724 9.37048 9.88839 9.22494L10.4035 7.15853C10.9875 7.30408 12.87 7.57541 12.5657 8.79548Z" fill="white"/>
</g>
</svg>
