<svg width="20" height="20" viewBox="0 0 20 20" fill="none" xmlns="http://www.w3.org/2000/svg">
<g id="Group 56">
<ellipse id="Ellipse 192" cx="10.0373" cy="9.99999" rx="9.54604" ry="9.58333" fill="white"/>
<path id="Vector" d="M9.96273 0.416656C8.07471 0.416656 6.22908 0.978709 4.65924 2.03174C3.0894 3.08477 1.86586 4.58148 1.14334 6.33261C0.420823 8.08373 0.23178 10.0106 0.600116 11.8696C0.968452 13.7286 1.87762 15.4362 3.21266 16.7764C4.5477 18.1167 6.24864 19.0294 8.10039 19.3992C9.95215 19.769 11.8715 19.5792 13.6158 18.8538C15.3602 18.1285 16.851 16.9002 17.9 15.3242C18.9489 13.7482 19.5088 11.8954 19.5088 9.99999C19.5124 8.74514 19.2698 7.50186 18.7949 6.34114C18.3199 5.18041 17.6218 4.12497 16.7406 3.23507C15.8593 2.34518 14.812 1.63825 13.6586 1.15467C12.5052 0.671085 11.2682 0.420308 10.0182 0.416656H9.96273ZM10.1245 10.3248L9.13063 13.6895H14.4468C14.482 13.6882 14.5172 13.694 14.5502 13.7063C14.5832 13.7187 14.6134 13.7375 14.6392 13.7617C14.6649 13.7858 14.6857 13.8148 14.7003 13.847C14.7149 13.8792 14.723 13.914 14.7242 13.9493V14.0375L14.2619 15.6386C14.2415 15.7143 14.1961 15.7808 14.1331 15.8272C14.0701 15.8736 13.9933 15.8971 13.9152 15.8939H5.77912L7.14284 11.2298L5.61732 11.6939L5.96403 10.6265L7.48955 10.1624L9.408 3.61884C9.42912 3.54354 9.47473 3.47751 9.53756 3.43126C9.60039 3.385 9.67683 3.36118 9.75471 3.36359H11.8118C11.8471 3.36235 11.8822 3.36809 11.9152 3.38048C11.9482 3.39288 11.9784 3.41168 12.0042 3.43582C12.03 3.45995 12.0507 3.48895 12.0653 3.52115C12.0799 3.55335 12.088 3.58812 12.0892 3.62348V3.71165L10.4712 9.23425L11.9968 8.77017L11.6732 9.88397L10.1245 10.3248Z" fill="#345D9D"/>
</g>
</svg>
