<svg width="35" height="35" viewBox="0 0 35 35" fill="none" xmlns="http://www.w3.org/2000/svg">
<g id="Group 65">
<path id="Vector" d="M17.5 34.2709C26.7623 34.2709 34.2708 26.7623 34.2708 17.5C34.2708 8.23774 26.7623 0.729187 17.5 0.729187C8.23772 0.729187 0.729164 8.23774 0.729164 17.5C0.729164 26.7623 8.23772 34.2709 17.5 34.2709Z" fill="#F7931A"/>
<path id="Vector_2" d="M25.5696 15.4246C25.8987 13.2277 24.2248 12.0464 21.9376 11.2581L22.6797 8.2813L20.8685 7.83059L20.1452 10.7288C19.6694 10.6093 19.1809 10.4982 18.6935 10.3871L19.422 7.47001L17.6108 7.01825L16.8686 9.99402C16.4745 9.90388 16.0867 9.81583 15.7115 9.7215L15.7136 9.71206L13.2147 9.0884L12.7325 11.0233C12.7325 11.0233 14.0774 11.3315 14.0491 11.3504C14.7828 11.5338 14.9148 12.0191 14.8928 12.4048L14.048 15.7957C14.0983 15.8083 14.1633 15.8271 14.2367 15.8554L14.0449 15.8083L12.8604 20.5586C12.7703 20.7808 12.5428 21.1152 12.0292 20.9884C12.0481 21.0146 10.7127 20.6603 10.7127 20.6603L9.81337 22.7336L12.1718 23.3216C12.6099 23.4317 13.0397 23.547 13.4621 23.6549L12.7126 26.6653L14.5228 27.116L15.2649 24.1392C15.7597 24.2723 16.2397 24.396 16.7093 24.5134L15.9693 27.4776L17.7806 27.9283L18.53 24.9243C21.62 25.5091 23.9428 25.2733 24.9207 22.4789C25.709 20.2295 24.882 18.9308 23.2562 18.0849C24.4407 17.8124 25.3316 17.0336 25.5696 15.4246ZM21.4293 21.2294C20.8706 23.4799 17.0814 22.2629 15.853 21.9579L16.8487 17.9696C18.0772 18.2767 22.0152 18.8836 21.4293 21.2294ZM21.99 15.3921C21.4796 17.4392 18.3267 16.3984 17.3047 16.1437L18.2061 12.5275C19.2281 12.7822 22.5225 13.257 21.99 15.3921Z" fill="white"/>
</g>
</svg>
