<svg width="98" height="19" viewBox="0 0 98 19" fill="none" xmlns="http://www.w3.org/2000/svg">
<path id="chart" d="M1 1.53907C1 1.53907 2.96644 3.72979 5.39216 3.72979C7.81788 3.72979 7.42732 1.82503 9.78431 1.53907C13.8389 1.04715 12.5436 5.35805 16.6863 5.60754C21.3339 5.88744 20.7932 1.63587 25.4706 1.53907C32.0399 1.40311 26.4829 9.48426 33 9.0501C38.054 8.71341 35.5315 4.23329 40.5294 3.72979C46.4761 3.1307 45.8353 9.53552 51.8235 9.0501C56.9996 8.63051 55.1163 4.70723 59.9804 3.72979C69.0032 1.91662 68.1748 15.7908 76.2941 13.1186C78.4682 12.403 78.4669 11.295 80.6863 10.6149C87.797 8.43583 97 17.5 97 17.5" stroke="#CD1B53" stroke-width="2" stroke-linecap="round"/>
</svg>
