<svg width="98" height="19" viewBox="0 0 98 19" fill="none" xmlns="http://www.w3.org/2000/svg">
<path id="chart" d="M1 17.4609C1 17.4609 2.96644 15.2702 5.39216 15.2702C7.81788 15.2702 7.42732 17.175 9.78431 17.4609C13.8389 17.9528 12.5436 13.6419 16.6863 13.3925C21.3339 13.1126 20.7932 17.3641 25.4706 17.4609C32.0399 17.5969 26.4829 9.51574 33 9.9499C38.054 10.2866 35.5315 14.7667 40.5294 15.2702C46.4761 15.8693 45.8353 9.46448 51.8235 9.9499C56.9996 10.3695 55.1163 14.2928 59.9804 15.2702C69.0032 17.0834 68.1748 3.20923 76.2941 5.88143C78.4682 6.59697 78.4669 7.70499 80.6863 8.38511C87.797 10.5642 97 1.5 97 1.5" stroke="#3AB983" stroke-width="2" stroke-linecap="round"/>
</svg>
