<svg width="35" height="35" viewBox="0 0 35 35" fill="none" xmlns="http://www.w3.org/2000/svg">
<g id="Group 59">
<path id="Ellipse 191" d="M34.2708 17.5C34.2708 26.7623 26.7623 34.2709 17.5 34.2709C8.23772 34.2709 0.729164 26.7623 0.729164 17.5C0.729164 8.23774 8.23772 0.729187 17.5 0.729187C26.7623 0.729187 34.2708 8.23774 34.2708 17.5Z" fill="white"/>
<path id="Ellipse 191 (Stroke)" fill-rule="evenodd" clip-rule="evenodd" d="M17.5 33.9215C26.5693 33.9215 33.9214 26.5693 33.9214 17.5C33.9214 8.43071 26.5693 1.07858 17.5 1.07858C8.43068 1.07858 1.07856 8.43071 1.07856 17.5C1.07856 26.5693 8.43068 33.9215 17.5 33.9215ZM17.5 34.2709C26.7623 34.2709 34.2708 26.7623 34.2708 17.5C34.2708 8.23774 26.7623 0.729187 17.5 0.729187C8.23772 0.729187 0.729164 8.23774 0.729164 17.5C0.729164 26.7623 8.23772 34.2709 17.5 34.2709Z" fill="#262954"/>
<g id="Group 40">
<path id="Vector" d="M17.6558 5.70801C12.7298 5.72779 8.7413 9.7163 8.72151 14.6423C8.72151 15.6289 8.88075 16.6088 9.19263 17.5444C9.42537 18.1814 10.116 18.5244 10.7643 18.3274C11.3909 18.0872 11.7235 17.4022 11.5237 16.7614C11.259 16.0321 11.1412 15.2586 11.176 14.484C11.2835 10.9261 14.2544 8.12863 17.8123 8.23604C21.3702 8.34346 24.1677 11.3143 24.0603 14.8722C23.9594 18.2031 21.3362 20.9082 18.0092 21.1108C18.0092 21.1108 16.7551 21.1871 16.1313 21.2635C15.9014 21.2964 15.6734 21.3417 15.4482 21.3991C15.4161 21.4321 15.3643 21.4321 15.3313 21.4001L15.3304 21.3991C15.3078 21.3699 15.3078 21.3285 15.3304 21.2993L15.5245 20.2402L16.7023 14.9429C16.8436 14.2815 16.4224 13.6304 15.761 13.489C15.0995 13.3477 14.4485 13.7689 14.3071 14.4303C14.3071 14.4303 11.5058 27.3965 11.5058 27.5143C11.3457 28.1447 11.7263 28.7854 12.3567 28.9456C12.3633 28.9474 12.3708 28.9493 12.3774 28.9503H12.4424C13.0718 29.1133 13.7144 28.7345 13.8765 28.1051C13.8793 28.0947 13.8822 28.0844 13.8841 28.073C13.8822 28.0533 13.8822 28.0335 13.8841 28.0146C13.9189 27.862 14.2723 26.1367 14.2723 26.1367C14.5398 24.8346 15.5895 23.8367 16.903 23.6351C17.1734 23.5936 18.3098 23.5173 18.3098 23.5173C23.2169 23.0283 26.7984 18.6535 26.3084 13.7463C25.8618 9.27062 22.1541 5.82485 17.6558 5.70801Z" fill="#1E1E1E"/>
<path id="Vector_2" d="M17.8326 26.3082C17.027 26.1405 16.2393 26.6578 16.0716 27.4624C16.0697 27.47 16.0688 27.4775 16.0669 27.485C15.8926 28.285 16.3995 29.0755 17.2004 29.2499C17.2013 29.2499 17.2023 29.2499 17.2032 29.2508H17.2447C18.0286 29.4402 18.8173 28.9578 19.0057 28.1748C19.0076 28.1691 19.0086 28.1625 19.0104 28.1569V28.0749C19.1489 27.2664 18.6326 26.491 17.8326 26.3082Z" fill="#E6007A"/>
</g>
</g>
</svg>
