<svg width="35" height="35" viewBox="0 0 35 35" fill="none" xmlns="http://www.w3.org/2000/svg">
<g id="Group 60">
<circle id="Ellipse 190" cx="17.5" cy="17.5" r="16.7708" fill="white"/>
<path id="Union" fill-rule="evenodd" clip-rule="evenodd" d="M0.729164 17.5C0.729164 8.23766 8.23763 0.729187 17.5 0.729187C26.7624 0.729187 34.2708 8.23766 34.2708 17.5C34.2708 26.7624 26.7624 34.2709 17.5 34.2709C8.23763 34.2709 0.729164 26.7624 0.729164 17.5ZM12.0854 26.5579H18.1589H18.1591C18.1591 26.5579 26.699 27.2737 26.699 17.6458C26.699 8.39107 18.9004 8.42389 17.3932 8.43024C17.358 8.43039 17.3261 8.43052 17.2979 8.43052H12.0852V16.5055H9.9444V18.4835H12.0854V26.5579ZM15.5063 11.7811H17.9025C18.7987 11.7811 23.3077 12.1418 23.3149 17.7109C23.3221 23.2137 18.776 23.208 18.0446 23.2071C18.0358 23.2071 18.0276 23.2071 18.0199 23.2071H15.5063V18.4832H19.2762V16.5053H15.5063V11.7811Z" fill="#C2A633"/>
</g>
</svg>
