<svg width="35" height="35" viewBox="0 0 35 35" fill="none" xmlns="http://www.w3.org/2000/svg">
<g id="Group 63">
<path id="Vector" d="M17.5 34.2709C26.7623 34.2709 34.2708 26.7623 34.2708 17.5C34.2708 8.23774 26.7623 0.729187 17.5 0.729187C8.23772 0.729187 0.729164 8.23774 0.729164 17.5C0.729164 26.7623 8.23772 34.2709 17.5 34.2709Z" fill="#262954"/>
<path id="Vector_2" d="M24.9106 9.11462H27.9398L21.635 15.3586C20.5327 16.4447 19.0474 17.0534 17.5 17.0534C15.9526 17.0534 14.4672 16.4447 13.3649 15.3586L7.05491 9.11462H10.0894L14.8795 13.8555C15.5771 14.544 16.5178 14.9301 17.4979 14.9301C18.478 14.9301 19.4187 14.544 20.1162 13.8555L24.9106 9.11462ZM10.0527 26.4756H7.01822L13.3649 20.1939C14.4672 19.1078 15.9526 18.499 17.5 18.499C19.0474 18.499 20.5327 19.1078 21.635 20.1939L27.9818 26.4745H24.9473L20.1204 21.6927C19.4229 21.0042 18.4822 20.6182 17.5021 20.6182C16.522 20.6182 15.5813 21.0042 14.8837 21.6927L10.0516 26.4756H10.0527Z" fill="white"/>
</g>
</svg>
