<svg width="35" height="35" viewBox="0 0 35 35" fill="none" xmlns="http://www.w3.org/2000/svg">
<g id="Group 64">
<path id="Vector" d="M17.5 34.2709C26.7623 34.2709 34.2708 26.7623 34.2708 17.5C34.2708 8.23774 26.7623 0.729187 17.5 0.729187C8.23772 0.729187 0.729164 8.23774 0.729164 17.5C0.729164 26.7623 8.23772 34.2709 17.5 34.2709Z" fill="#ECF1F3"/>
<g id="Group">
<path id="Vector_2" d="M17.5 4.92188V14.2192L25.3582 17.7306L17.5 4.92188Z" fill="#262954" fill-opacity="0.6"/>
<path id="Vector_3" d="M18.022 4.92188L10.1628 17.7306L18.022 14.2192V4.92188Z" fill="#262954"/>
<path id="Vector_4" d="M17.5 24.158V30.4754L25.3634 19.5964L17.5 24.158Z" fill="#262954" fill-opacity="0.6"/>
<path id="Vector_5" d="M18.022 30.4754V24.157L10.1628 19.5964L18.022 30.4754Z" fill="#262954"/>
<path id="Vector_6" d="M17.5 22.4275L25.3582 17.8648L17.5 14.3555V22.4275Z" fill="#262954" fill-opacity="0.2"/>
<path id="Vector_7" d="M10.1628 17.8648L18.022 22.4275V14.3555L10.1628 17.8648Z" fill="#262954" fill-opacity="0.6"/>
</g>
</g>
</svg>
