<svg width="35" height="35" viewBox="0 0 35 35" fill="none" xmlns="http://www.w3.org/2000/svg">
<g id="XRM" clip-path="url(#clip0_2_8)">
<path id="Vector" d="M34.9995 17.4983C34.9995 27.162 27.1653 34.9965 17.4999 34.9965C7.83447 34.9965 0.000289917 27.162 0.000289917 17.4983C0.000289917 7.83456 7.83466 0 17.4999 0C27.1651 0 34.9995 7.83382 34.9995 17.4983Z" fill="white"/>
<path id="149931032" d="M17.5 0C7.83801 0 -0.0100578 7.84565 0.00224222 17.4977C0.00466495 19.4288 0.312631 21.2864 0.890639 23.0239H6.12635V8.30396L17.5 19.6763L28.873 8.30396V23.0242H34.1098C34.6887 21.2867 34.9951 19.4292 34.9985 17.498C35.015 7.83587 27.1629 0.0023293 17.5 0.0023293V0Z" fill="#F26822"/>
<path id="149931160" d="M14.8843 22.2907L9.92081 17.3274V26.59H6.12597L2.54508 26.5907C5.61664 31.6294 11.1677 35 17.5 35C23.8322 35 29.3836 31.6287 32.4557 26.5899H25.078V17.3274L20.1142 22.2907L17.4994 24.9052L14.8845 22.2907H14.8843Z" fill="#4D4D4D"/>
</g>
<defs>
<clipPath id="clip0_2_8">
<rect width="35" height="35" fill="white"/>
</clipPath>
</defs>
</svg>
