<svg width="35" height="35" viewBox="0 0 35 35" fill="none" xmlns="http://www.w3.org/2000/svg">
<g id="Sys-Icons" clip-path="url(#clip0_1_12850)">
<path id="Vector" fill-rule="evenodd" clip-rule="evenodd" d="M6.29338 5.46875C5.74132 2.625 7.94953 0 10.8202 0C13.3596 0 15.4574 2.07812 15.4574 4.59375V10.2812C16.1199 10.2812 16.7823 10.1719 17.4448 10.1719C18.1073 10.1719 18.6593 10.1719 19.3218 10.2812V4.59375C19.3218 2.07812 21.4196 0 23.959 0C26.8297 0 29.0379 2.625 28.5962 5.46875L27.3817 12.1406C31.6877 14 35 17.2812 35 21.3281V23.8438C35 27.2344 32.7918 30.0781 29.5899 31.9375C26.388 33.9062 22.1924 35 17.4448 35C12.6972 35 8.50158 33.9062 5.29968 31.9375C2.2082 30.0781 0 27.2344 0 23.8438V21.3281C0 17.2812 3.20189 14 7.50789 12.1406L6.29338 5.46875ZM25.7256 13.0156L27.1609 5.14062C27.4921 3.17187 26.0568 1.3125 23.959 1.3125C22.1924 1.3125 20.7571 2.73437 20.7571 4.48438V11.7031C20.3155 11.5938 19.7634 11.5938 19.3218 11.5938C18.6593 11.5938 18.1073 11.4844 17.4448 11.4844C16.7823 11.4844 16.1199 11.4844 15.4574 11.5938C15.0158 11.5938 14.4637 11.7031 14.0221 11.7031V4.59375C14.0221 2.84375 12.5868 1.42188 10.8202 1.42188C8.83281 1.42188 7.28707 3.28125 7.72871 5.25L9.16404 13.125C4.52681 14.875 1.43533 17.9375 1.43533 21.4375V23.9531C1.43533 29.3125 8.61199 33.6875 17.4448 33.6875C26.2776 33.6875 33.4543 29.3125 33.4543 23.9531V21.4375C33.5647 17.8281 30.4732 14.7656 25.7256 13.0156Z" fill="#633001"/>
<path id="Vector_2" d="M33.5647 23.8437C33.5647 29.2031 26.388 33.5781 17.5552 33.5781C8.72239 33.5781 1.54574 29.2031 1.54574 23.8437V21.3281H33.6751V23.8437H33.5647Z" fill="#FEDC90"/>
<path id="Vector_3" fill-rule="evenodd" clip-rule="evenodd" d="M7.7287 5.25C7.28706 3.28125 8.8328 1.42188 10.8202 1.42188C12.5867 1.42188 14.0221 2.84375 14.0221 4.59375V11.8125C15.1262 11.7031 16.2303 11.5938 17.4448 11.5938C18.5489 11.5938 19.653 11.7031 20.7571 11.8125V4.59375C20.7571 2.84375 22.1924 1.42188 23.959 1.42188C25.9464 1.42188 27.4921 3.28125 27.1609 5.25L25.7255 13.125C30.3628 14.875 33.5647 17.9375 33.5647 21.4375C33.5647 26.7969 26.388 31.1719 17.5552 31.1719C8.72239 31.1719 1.54574 26.7969 1.54574 21.4375C1.54574 17.9375 4.63722 14.875 9.27444 13.125L7.7287 5.25Z" fill="#D1884F"/>
<path id="Vector_4" d="M13.0284 20.6719C13.0284 22.0938 12.2555 23.2969 11.2618 23.2969C10.2681 23.2969 9.49527 22.0938 9.49527 20.6719C9.49527 19.25 10.2681 18.0469 11.2618 18.0469C12.2555 18.0469 13.0284 19.25 13.0284 20.6719Z" fill="#633001"/>
<path id="Vector_5" d="M25.2839 20.6719C25.2839 22.0938 24.511 23.2969 23.5174 23.2969C22.5237 23.2969 21.7508 22.0938 21.7508 20.6719C21.7508 19.25 22.5237 18.0469 23.5174 18.0469C24.511 18.0469 25.2839 19.25 25.2839 20.6719Z" fill="#633001"/>
</g>
<defs>
<clipPath id="clip0_1_12850">
<rect width="35" height="35" fill="white"/>
</clipPath>
</defs>
</svg>
