<svg width="35" height="35" viewBox="0 0 35 35" fill="none" xmlns="http://www.w3.org/2000/svg">
<g id="Sys-Icons" clip-path="url(#clip0_1_12868)">
<path id="Vector" d="M17.5 35C27.165 35 35 27.165 35 17.5C35 7.83502 27.165 0 17.5 0C7.83502 0 0 7.83502 0 17.5C0 27.165 7.83502 35 17.5 35Z" fill="#5546FF"/>
<path id="Vector_2" d="M24.6402 26.7209L20.873 20.8072H26.2829V18.5732H8.54193V20.8072H13.9518L10.1846 26.7209H12.9881L17.4124 19.7778L21.8367 26.7209H24.6402ZM26.2829 16.4049V14.1708H20.9825L24.7059 8.32288H21.8805L17.4124 15.3754L12.9443 8.32288H10.1189L13.8423 14.1708H8.54193V16.4268L26.2829 16.4049Z" fill="white"/>
</g>
<defs>
<clipPath id="clip0_1_12868">
<rect width="35" height="35" fill="white"/>
</clipPath>
</defs>
</svg>
