<svg width="18" height="19" viewBox="0 0 18 19" fill="none" xmlns="http://www.w3.org/2000/svg">
<g id="bitcoin-convert">
<g id="Group">
<path id="Vector" d="M17.25 11.915C16.9425 11.915 16.6875 12.17 16.6875 12.4775C16.6875 14.6975 15.1425 16.5575 13.065 17.045L13.2675 16.7075C13.425 16.4375 13.3425 16.0925 13.0725 15.935C12.81 15.7775 12.4575 15.86 12.3 16.13L11.5125 17.4425C11.4075 17.615 11.4075 17.8325 11.505 18.005C11.6025 18.185 11.79 18.29 11.9925 18.29C15.195 18.29 17.805 15.68 17.805 12.4775C17.8125 12.17 17.5575 11.915 17.25 11.915Z" fill="black"/>
<path id="Vector_2" d="M6 0.664978C2.7975 0.664978 0.1875 3.27498 0.1875 6.47748C0.1875 6.78498 0.4425 7.03998 0.75 7.03998C1.0575 7.03998 1.3125 6.78498 1.3125 6.47748C1.3125 4.25748 2.8575 2.39748 4.935 1.90998L4.7325 2.24748C4.575 2.51748 4.6575 2.86248 4.9275 3.01998C5.19 3.17748 5.5425 3.09498 5.7 2.82498L6.4875 1.51248C6.585 1.33998 6.5925 1.12998 6.4875 0.949978C6.39 0.777478 6.2025 0.664978 6 0.664978Z" fill="black"/>
</g>
<path id="Vector_3" d="M16.1251 7.0025C16.1251 9.3125 14.4451 11.2175 12.2476 11.57C12.2476 11.5625 12.2476 11.5625 12.2476 11.555C12.0301 8.7575 9.76505 6.4775 6.93005 6.2525C7.28255 4.055 9.18755 2.375 11.4976 2.375C14.0551 2.375 16.1251 4.445 16.1251 7.0025Z" fill="black"/>
<path id="Vector_4" d="M7.35747 11.15C7.35747 11.0375 7.22997 10.865 7.07247 10.865H5.52747V11.4275H7.07247C7.22997 11.435 7.35747 11.3075 7.35747 11.15Z" fill="black"/>
<path id="Vector_5" d="M7.37247 12.56H7.07247H5.52747V13.1225H7.37997C7.61997 13.1225 7.78497 12.9725 7.78497 12.8375C7.78497 12.7025 7.61247 12.56 7.37247 12.56Z" fill="black"/>
<path id="Vector_6" d="M11.1225 11.6375C10.95 9.36499 9.135 7.54999 6.8625 7.37749C6.7425 7.36999 6.63 7.36249 6.5025 7.36249C3.945 7.36249 1.875 9.43249 1.875 11.9975C1.875 14.555 3.945 16.625 6.5025 16.625C9.06 16.625 11.1375 14.555 11.1375 11.9975C11.1375 11.87 11.13 11.7575 11.1225 11.6375ZM7.3725 14.2475H6.8775V14.5325C6.8775 14.84 6.6225 15.095 6.315 15.095C6.0075 15.095 5.7525 14.84 5.7525 14.5325V14.2475H4.965C4.6575 14.2475 4.4025 13.9925 4.4025 13.685V11.9975V10.31C4.4025 10.0025 4.6575 9.74749 4.965 9.74749H5.7525V9.46249C5.7525 9.15499 6.0075 8.89999 6.315 8.89999C6.6225 8.89999 6.8775 9.15499 6.8775 9.46249V9.74749H7.0725C7.8225 9.74749 8.4825 10.4075 8.4825 11.1575C8.4825 11.375 8.43 11.5775 8.34 11.765C8.685 12.02 8.9025 12.41 8.9025 12.845C8.9025 13.6175 8.22 14.2475 7.3725 14.2475Z" fill="black"/>
</g>
</svg>
